<mxfile host="app.diagrams.net" modified="2023-04-05T08:26:05.044Z" agent="Mozilla/5.0 (Windows NT 10.0; Win64; x64) AppleWebKit/537.36 (KHTML, like Gecko) Chrome/111.0.0.0 Safari/537.36" etag="9RSv47xNZ3_yYxD_-ACU" version="21.1.2" type="device">
  <diagram name="Page-1" id="03018318-947c-dd8e-b7a3-06fadd420f32">
    <mxGraphModel dx="6120" dy="3320" grid="1" gridSize="10" guides="1" tooltips="1" connect="1" arrows="1" fold="1" page="1" pageScale="1" pageWidth="1920" pageHeight="1200" background="none" math="0" shadow="0">
      <root>
        <mxCell id="0" />
        <mxCell id="1" parent="0" />
        <mxCell id="IyQjWxYwGwcPTdUjTPlc-4" value="" style="strokeWidth=3;shadow=0;dashed=0;align=center;html=1;shape=mxgraph.mockup.containers.browserWindow;rSize=0;strokeColor=default;strokeColor2=#008cff;strokeColor3=#c4c4c4;mainText=,;recursiveResize=0;fillColor=default;rounded=0;fontSize=31;" parent="1" vertex="1">
          <mxGeometry width="1920" height="110" as="geometry" />
        </mxCell>
        <mxCell id="IyQjWxYwGwcPTdUjTPlc-5" value="Page 1" style="strokeWidth=1;shadow=0;dashed=0;align=center;html=1;shape=mxgraph.mockup.containers.anchor;fontSize=31;fontColor=#666666;align=left;whiteSpace=wrap;" parent="IyQjWxYwGwcPTdUjTPlc-4" vertex="1">
          <mxGeometry x="60" y="12" width="110" height="26" as="geometry" />
        </mxCell>
        <mxCell id="IyQjWxYwGwcPTdUjTPlc-6" value="https://www.draw.io" style="strokeWidth=1;shadow=0;dashed=0;align=center;html=1;shape=mxgraph.mockup.containers.anchor;rSize=0;fontSize=31;fontColor=#666666;align=left;" parent="IyQjWxYwGwcPTdUjTPlc-4" vertex="1">
          <mxGeometry x="130" y="60" width="250" height="26" as="geometry" />
        </mxCell>
        <mxCell id="IyQjWxYwGwcPTdUjTPlc-7" value="" style="rounded=0;whiteSpace=wrap;html=1;fillColor=#f5f5f5;strokeWidth=3;align=left;strokeColor=#666666;fontColor=#333333;fontSize=31;" parent="1" vertex="1">
          <mxGeometry y="110" width="1920" height="80" as="geometry" />
        </mxCell>
        <mxCell id="IyQjWxYwGwcPTdUjTPlc-8" value="&lt;p style=&quot;line-height: 120%; font-size: 31px;&quot;&gt;&lt;br style=&quot;font-size: 31px;&quot;&gt;&lt;/p&gt;" style="rounded=0;whiteSpace=wrap;html=1;fillColor=none;strokeWidth=3;align=left;fontSize=31;" parent="1" vertex="1">
          <mxGeometry y="190" width="1920" height="3230" as="geometry" />
        </mxCell>
        <mxCell id="IyQjWxYwGwcPTdUjTPlc-17" value="" style="rounded=0;whiteSpace=wrap;html=1;strokeWidth=3;fontFamily=Helvetica;fontSize=31;glass=0;shadow=0;fillColor=#f5f5f5;strokeColor=#666666;fontColor=#333333;" parent="1" vertex="1">
          <mxGeometry x="10" y="200" width="1900" height="430" as="geometry" />
        </mxCell>
        <mxCell id="IyQjWxYwGwcPTdUjTPlc-188" value="div" style="rounded=0;whiteSpace=wrap;html=1;strokeWidth=3;fontFamily=Helvetica;fontSize=31;glass=0;shadow=0;fillColor=#ffe6cc;strokeColor=#d79b00;" parent="1" vertex="1">
          <mxGeometry x="1820" y="241.25" width="270" height="347.5" as="geometry" />
        </mxCell>
        <mxCell id="IyQjWxYwGwcPTdUjTPlc-18" value="" style="rounded=0;whiteSpace=wrap;html=1;strokeWidth=3;fontFamily=Helvetica;fontSize=31;glass=0;shadow=0;fillColor=#f5f5f5;fontColor=#333333;strokeColor=#666666;" parent="1" vertex="1">
          <mxGeometry x="10" y="640" width="1900" height="1040" as="geometry" />
        </mxCell>
        <mxCell id="IyQjWxYwGwcPTdUjTPlc-19" value="div" style="rounded=0;whiteSpace=wrap;html=1;strokeWidth=3;fontFamily=Helvetica;fontSize=31;glass=0;shadow=0;fillColor=#ffe6cc;strokeColor=#d79b00;" parent="1" vertex="1">
          <mxGeometry x="10" y="1690" width="1900" height="220" as="geometry" />
        </mxCell>
        <mxCell id="IyQjWxYwGwcPTdUjTPlc-20" value="" style="rounded=0;whiteSpace=wrap;html=1;strokeWidth=3;fontFamily=Helvetica;fontSize=31;glass=0;shadow=0;fillColor=#dae8fc;strokeColor=#6c8ebf;" parent="1" vertex="1">
          <mxGeometry x="10" y="1930" width="1900" height="610" as="geometry" />
        </mxCell>
        <mxCell id="IyQjWxYwGwcPTdUjTPlc-21" value="" style="rounded=0;whiteSpace=wrap;html=1;strokeWidth=3;fontFamily=Helvetica;fontSize=31;glass=0;shadow=0;fillColor=#f5f5f5;fontColor=#333333;strokeColor=#666666;" parent="1" vertex="1">
          <mxGeometry x="10" y="2590" width="1900" height="410" as="geometry" />
        </mxCell>
        <mxCell id="IyQjWxYwGwcPTdUjTPlc-22" value="" style="rounded=0;whiteSpace=wrap;html=1;strokeWidth=3;fontFamily=Helvetica;fontSize=31;glass=0;shadow=0;fillColor=#e1d5e7;strokeColor=#9673a6;" parent="1" vertex="1">
          <mxGeometry x="11" y="3040" width="1900" height="360" as="geometry" />
        </mxCell>
        <mxCell id="IyQjWxYwGwcPTdUjTPlc-24" value="div" style="rounded=0;whiteSpace=wrap;html=1;strokeWidth=3;fontFamily=Helvetica;fontSize=31;glass=0;shadow=0;fillColor=#ffe6cc;strokeColor=#d79b00;" parent="1" vertex="1">
          <mxGeometry x="140" y="241.25" width="1640" height="347.5" as="geometry" />
        </mxCell>
        <mxCell id="IyQjWxYwGwcPTdUjTPlc-28" value="" style="rounded=0;whiteSpace=wrap;html=1;strokeWidth=3;fontFamily=Helvetica;fontSize=31;glass=0;shadow=0;" parent="1" vertex="1">
          <mxGeometry x="20" y="750" width="1880" height="110" as="geometry" />
        </mxCell>
        <mxCell id="IyQjWxYwGwcPTdUjTPlc-29" value="h1" style="rounded=0;whiteSpace=wrap;html=1;strokeWidth=3;fontFamily=Helvetica;fontSize=31;glass=0;shadow=0;" parent="1" vertex="1">
          <mxGeometry x="485.5" y="650" width="950" height="80" as="geometry" />
        </mxCell>
        <mxCell id="IyQjWxYwGwcPTdUjTPlc-88" value="" style="rounded=0;whiteSpace=wrap;html=1;strokeWidth=3;fontFamily=Helvetica;fontSize=31;glass=0;shadow=0;" parent="1" vertex="1">
          <mxGeometry x="420" y="120" width="1110" height="60" as="geometry" />
        </mxCell>
        <mxCell id="IyQjWxYwGwcPTdUjTPlc-91" value="btn" style="rounded=0;whiteSpace=wrap;html=1;strokeWidth=3;fontFamily=Helvetica;fontSize=31;glass=0;shadow=0;fillColor=#d5e8d4;strokeColor=#82b366;" parent="1" vertex="1">
          <mxGeometry x="690" y="1570" width="540" height="100" as="geometry" />
        </mxCell>
        <mxCell id="IyQjWxYwGwcPTdUjTPlc-92" value="a" style="rounded=0;whiteSpace=wrap;html=1;strokeWidth=3;fontFamily=Helvetica;fontSize=31;glass=0;shadow=0;fillColor=#fff2cc;strokeColor=#d6b656;" parent="1" vertex="1">
          <mxGeometry x="41" y="2090" width="910" height="420" as="geometry" />
        </mxCell>
        <mxCell id="IyQjWxYwGwcPTdUjTPlc-99" value="h1" style="rounded=0;whiteSpace=wrap;html=1;strokeWidth=3;fontFamily=Helvetica;fontSize=31;glass=0;shadow=0;" parent="1" vertex="1">
          <mxGeometry x="538" y="2649" width="845" height="60" as="geometry" />
        </mxCell>
        <mxCell id="IyQjWxYwGwcPTdUjTPlc-100" value="btn" style="rounded=0;whiteSpace=wrap;html=1;strokeWidth=3;fontFamily=Helvetica;fontSize=31;glass=0;shadow=0;fillColor=#d5e8d4;strokeColor=#82b366;" parent="1" vertex="1">
          <mxGeometry x="1345" y="655" width="80" height="70" as="geometry" />
        </mxCell>
        <mxCell id="IyQjWxYwGwcPTdUjTPlc-102" value="&lt;font style=&quot;font-size: 31px;&quot;&gt;a&lt;/font&gt;" style="rounded=0;whiteSpace=wrap;html=1;strokeWidth=3;fontFamily=Helvetica;fontSize=31;glass=0;shadow=0;fillColor=#fff2cc;strokeColor=#d6b656;" parent="1" vertex="1">
          <mxGeometry x="445" y="125" width="100" height="50" as="geometry" />
        </mxCell>
        <mxCell id="IyQjWxYwGwcPTdUjTPlc-104" value="a" style="rounded=0;whiteSpace=wrap;html=1;strokeWidth=3;fontFamily=Helvetica;fontSize=31;glass=0;shadow=0;fillColor=#fff2cc;strokeColor=#d6b656;" parent="1" vertex="1">
          <mxGeometry x="610" y="125" width="100" height="50" as="geometry" />
        </mxCell>
        <mxCell id="IyQjWxYwGwcPTdUjTPlc-105" value="a" style="rounded=0;whiteSpace=wrap;html=1;strokeWidth=3;fontFamily=Helvetica;fontSize=31;glass=0;shadow=0;fillColor=#fff2cc;strokeColor=#d6b656;" parent="1" vertex="1">
          <mxGeometry x="760" y="125" width="100" height="50" as="geometry" />
        </mxCell>
        <mxCell id="IyQjWxYwGwcPTdUjTPlc-106" value="a" style="rounded=0;whiteSpace=wrap;html=1;strokeWidth=3;fontFamily=Helvetica;fontSize=31;glass=0;shadow=0;fillColor=#fff2cc;strokeColor=#d6b656;" parent="1" vertex="1">
          <mxGeometry x="910.5" y="125" width="100" height="50" as="geometry" />
        </mxCell>
        <mxCell id="IyQjWxYwGwcPTdUjTPlc-107" value="a" style="rounded=0;whiteSpace=wrap;html=1;strokeWidth=3;fontFamily=Helvetica;fontSize=31;glass=0;shadow=0;fillColor=#fff2cc;strokeColor=#d6b656;" parent="1" vertex="1">
          <mxGeometry x="1080" y="125" width="100" height="50" as="geometry" />
        </mxCell>
        <mxCell id="IyQjWxYwGwcPTdUjTPlc-108" value="a" style="rounded=0;whiteSpace=wrap;html=1;strokeWidth=3;fontFamily=Helvetica;fontSize=31;glass=0;shadow=0;fillColor=#fff2cc;strokeColor=#d6b656;" parent="1" vertex="1">
          <mxGeometry x="1405" y="125" width="100" height="50" as="geometry" />
        </mxCell>
        <mxCell id="IyQjWxYwGwcPTdUjTPlc-109" value="a" style="rounded=0;whiteSpace=wrap;html=1;strokeWidth=3;fontFamily=Helvetica;fontSize=31;glass=0;shadow=0;fillColor=#fff2cc;strokeColor=#d6b656;" parent="1" vertex="1">
          <mxGeometry x="1245" y="125" width="100" height="50" as="geometry" />
        </mxCell>
        <mxCell id="IyQjWxYwGwcPTdUjTPlc-111" value="" style="rounded=0;whiteSpace=wrap;html=1;strokeWidth=3;fontFamily=Helvetica;fontSize=31;glass=0;shadow=0;" parent="1" vertex="1">
          <mxGeometry x="1540" y="120" width="370" height="60" as="geometry" />
        </mxCell>
        <mxCell id="IyQjWxYwGwcPTdUjTPlc-119" value="a" style="rounded=0;whiteSpace=wrap;html=1;strokeWidth=3;fontFamily=Helvetica;fontSize=31;glass=0;shadow=0;fillColor=#fff2cc;strokeColor=#d6b656;" parent="1" vertex="1">
          <mxGeometry x="47.5" y="780" width="100" height="50" as="geometry" />
        </mxCell>
        <mxCell id="IyQjWxYwGwcPTdUjTPlc-120" value="a" style="rounded=0;whiteSpace=wrap;html=1;strokeWidth=3;fontFamily=Helvetica;fontSize=31;glass=0;shadow=0;fillColor=#fff2cc;strokeColor=#d6b656;" parent="1" vertex="1">
          <mxGeometry x="212.5" y="780" width="100" height="50" as="geometry" />
        </mxCell>
        <mxCell id="IyQjWxYwGwcPTdUjTPlc-121" value="a" style="rounded=0;whiteSpace=wrap;html=1;strokeWidth=3;fontFamily=Helvetica;fontSize=31;glass=0;shadow=0;fillColor=#fff2cc;strokeColor=#d6b656;" parent="1" vertex="1">
          <mxGeometry x="362.5" y="780" width="100" height="50" as="geometry" />
        </mxCell>
        <mxCell id="IyQjWxYwGwcPTdUjTPlc-122" value="a" style="rounded=0;whiteSpace=wrap;html=1;strokeWidth=3;fontFamily=Helvetica;fontSize=31;glass=0;shadow=0;fillColor=#fff2cc;strokeColor=#d6b656;" parent="1" vertex="1">
          <mxGeometry x="513" y="780" width="100" height="50" as="geometry" />
        </mxCell>
        <mxCell id="IyQjWxYwGwcPTdUjTPlc-123" value="a" style="rounded=0;whiteSpace=wrap;html=1;strokeWidth=3;fontFamily=Helvetica;fontSize=31;glass=0;shadow=0;fillColor=#fff2cc;strokeColor=#d6b656;" parent="1" vertex="1">
          <mxGeometry x="682.5" y="780" width="100" height="50" as="geometry" />
        </mxCell>
        <mxCell id="IyQjWxYwGwcPTdUjTPlc-124" value="a" style="rounded=0;whiteSpace=wrap;html=1;strokeWidth=3;fontFamily=Helvetica;fontSize=31;glass=0;shadow=0;fillColor=#fff2cc;strokeColor=#d6b656;" parent="1" vertex="1">
          <mxGeometry x="1007.5" y="780" width="100" height="50" as="geometry" />
        </mxCell>
        <mxCell id="IyQjWxYwGwcPTdUjTPlc-125" value="a" style="rounded=0;whiteSpace=wrap;html=1;strokeWidth=3;fontFamily=Helvetica;fontSize=31;glass=0;shadow=0;fillColor=#fff2cc;strokeColor=#d6b656;" parent="1" vertex="1">
          <mxGeometry x="847.5" y="780" width="100" height="50" as="geometry" />
        </mxCell>
        <mxCell id="IyQjWxYwGwcPTdUjTPlc-126" value="a" style="rounded=0;whiteSpace=wrap;html=1;strokeWidth=3;fontFamily=Helvetica;fontSize=31;glass=0;shadow=0;fillColor=#fff2cc;strokeColor=#d6b656;" parent="1" vertex="1">
          <mxGeometry x="1160" y="780" width="100" height="50" as="geometry" />
        </mxCell>
        <mxCell id="IyQjWxYwGwcPTdUjTPlc-127" value="a" style="rounded=0;whiteSpace=wrap;html=1;strokeWidth=3;fontFamily=Helvetica;fontSize=31;glass=0;shadow=0;fillColor=#fff2cc;strokeColor=#d6b656;" parent="1" vertex="1">
          <mxGeometry x="1328.75" y="780" width="100" height="50" as="geometry" />
        </mxCell>
        <mxCell id="IyQjWxYwGwcPTdUjTPlc-128" value="a" style="rounded=0;whiteSpace=wrap;html=1;strokeWidth=3;fontFamily=Helvetica;fontSize=31;glass=0;shadow=0;fillColor=#fff2cc;strokeColor=#d6b656;" parent="1" vertex="1">
          <mxGeometry x="1481.25" y="780" width="100" height="50" as="geometry" />
        </mxCell>
        <mxCell id="IyQjWxYwGwcPTdUjTPlc-129" value="btn" style="rounded=0;whiteSpace=wrap;html=1;strokeWidth=3;fontFamily=Helvetica;fontSize=31;glass=0;shadow=0;fillColor=#d5e8d4;strokeColor=#82b366;" parent="1" vertex="1">
          <mxGeometry x="1650" y="780" width="70" height="50" as="geometry" />
        </mxCell>
        <mxCell id="IyQjWxYwGwcPTdUjTPlc-131" value="btn" style="rounded=0;whiteSpace=wrap;html=1;strokeWidth=3;fontFamily=Helvetica;fontSize=31;glass=0;shadow=0;fillColor=#d5e8d4;strokeColor=#82b366;" parent="1" vertex="1">
          <mxGeometry x="1774.25" y="780" width="70" height="50" as="geometry" />
        </mxCell>
        <mxCell id="IyQjWxYwGwcPTdUjTPlc-132" value="btn" style="rounded=0;whiteSpace=wrap;html=1;strokeWidth=3;fontFamily=Helvetica;fontSize=31;glass=0;shadow=1;fillColor=#d5e8d4;strokeColor=#82b366;" parent="1" vertex="1">
          <mxGeometry x="11" y="780" width="70" height="50" as="geometry" />
        </mxCell>
        <mxCell id="IyQjWxYwGwcPTdUjTPlc-133" value="h1" style="rounded=0;whiteSpace=wrap;html=1;strokeWidth=3;fontFamily=Helvetica;fontSize=31;glass=0;shadow=0;" parent="1" vertex="1">
          <mxGeometry x="552.5" y="1950" width="845" height="60" as="geometry" />
        </mxCell>
        <mxCell id="IyQjWxYwGwcPTdUjTPlc-134" value="a" style="rounded=0;whiteSpace=wrap;html=1;strokeWidth=3;fontFamily=Helvetica;fontSize=31;glass=0;shadow=0;fillColor=#fff2cc;strokeColor=#d6b656;" parent="1" vertex="1">
          <mxGeometry x="691" y="2020" width="540" height="50" as="geometry" />
        </mxCell>
        <mxCell id="IyQjWxYwGwcPTdUjTPlc-136" value="btn" style="rounded=0;whiteSpace=wrap;html=1;strokeWidth=3;fontFamily=Helvetica;fontSize=31;glass=0;shadow=0;fillColor=#d5e8d4;strokeColor=#82b366;" parent="1" vertex="1">
          <mxGeometry x="1730" y="2010" width="70" height="50" as="geometry" />
        </mxCell>
        <mxCell id="IyQjWxYwGwcPTdUjTPlc-137" value="btn" style="rounded=0;whiteSpace=wrap;html=1;strokeWidth=3;fontFamily=Helvetica;fontSize=31;glass=0;shadow=1;fillColor=#d5e8d4;strokeColor=#82b366;" parent="1" vertex="1">
          <mxGeometry x="110" y="2010" width="70" height="50" as="geometry" />
        </mxCell>
        <mxCell id="IyQjWxYwGwcPTdUjTPlc-138" value="&lt;font style=&quot;font-size: 31px;&quot;&gt;footer&lt;/font&gt;" style="strokeWidth=5;shadow=0;dashed=0;align=center;html=1;shape=mxgraph.mockup.text.callout;linkText=;textSize=17;textColor=#666666;callDir=NW;callStyle=line;fontSize=31;fontColor=#666666;align=left;verticalAlign=top;strokeColor=#e1d5e7;rounded=0;fontFamily=Helvetica;fillColor=none;" parent="1" vertex="1">
          <mxGeometry x="-190" y="2980" width="200" height="100" as="geometry" />
        </mxCell>
        <mxCell id="IyQjWxYwGwcPTdUjTPlc-139" value="&lt;p style=&quot;line-height: 0%; font-size: 31px;&quot;&gt;&lt;span style=&quot;font-size: 31px;&quot;&gt;div&lt;/span&gt;&lt;/p&gt;&lt;p style=&quot;line-height: 0%; font-size: 31px;&quot;&gt;&lt;span style=&quot;font-size: 31px;&quot;&gt;&lt;br style=&quot;font-size: 31px;&quot;&gt;&lt;/span&gt;&lt;/p&gt;&lt;p style=&quot;line-height: 0%; font-size: 31px;&quot;&gt;&lt;span style=&quot;font-size: 31px;&quot;&gt;&lt;br style=&quot;font-size: 31px;&quot;&gt;&lt;/span&gt;&lt;/p&gt;&lt;p style=&quot;line-height: 0%; font-size: 31px;&quot;&gt;&lt;span style=&quot;font-size: 31px;&quot;&gt;&lt;br style=&quot;font-size: 31px;&quot;&gt;&lt;/span&gt;&lt;/p&gt;&lt;p style=&quot;line-height: 0%; font-size: 31px;&quot;&gt;&lt;span style=&quot;font-size: 31px;&quot;&gt;&lt;br style=&quot;font-size: 31px;&quot;&gt;&lt;/span&gt;&lt;/p&gt;&lt;p style=&quot;line-height: 0%; font-size: 31px;&quot;&gt;&lt;span style=&quot;font-size: 31px;&quot;&gt;&lt;br style=&quot;font-size: 31px;&quot;&gt;&lt;/span&gt;&lt;/p&gt;" style="strokeWidth=5;shadow=0;dashed=0;align=center;html=1;shape=mxgraph.mockup.text.callout;linkText=;textSize=17;textColor=#666666;callDir=NW;callStyle=line;fontSize=31;fontColor=#333333;align=left;verticalAlign=top;strokeColor=#787878;rounded=0;fontFamily=Helvetica;fillColor=#f5f5f5;" parent="1" vertex="1">
          <mxGeometry x="-200" y="60" width="200" height="100" as="geometry" />
        </mxCell>
        <mxCell id="IyQjWxYwGwcPTdUjTPlc-141" value="" style="rounded=0;whiteSpace=wrap;html=1;strokeWidth=3;fontFamily=Helvetica;fontSize=31;glass=0;shadow=0;fillColor=#f5f5f5;strokeColor=#666666;fontColor=#333333;" parent="1" vertex="1">
          <mxGeometry x="35" y="2760" width="1850" height="210" as="geometry" />
        </mxCell>
        <mxCell id="IyQjWxYwGwcPTdUjTPlc-145" value="a" style="rounded=0;whiteSpace=wrap;html=1;strokeWidth=3;fontFamily=Helvetica;fontSize=31;glass=0;shadow=0;fillColor=#fff2cc;strokeColor=#d6b656;" parent="1" vertex="1">
          <mxGeometry x="1460.75" y="2805" width="287.5" height="120" as="geometry" />
        </mxCell>
        <mxCell id="IyQjWxYwGwcPTdUjTPlc-146" value="a" style="rounded=0;whiteSpace=wrap;html=1;strokeWidth=3;fontFamily=Helvetica;fontSize=31;glass=0;shadow=0;fillColor=#fff2cc;strokeColor=#d6b656;" parent="1" vertex="1">
          <mxGeometry x="1035" y="2805" width="287.5" height="120" as="geometry" />
        </mxCell>
        <mxCell id="IyQjWxYwGwcPTdUjTPlc-147" value="a" style="rounded=0;whiteSpace=wrap;html=1;strokeWidth=3;fontFamily=Helvetica;fontSize=31;glass=0;shadow=0;fillColor=#fff2cc;strokeColor=#d6b656;" parent="1" vertex="1">
          <mxGeometry x="599.5" y="2805" width="287.5" height="120" as="geometry" />
        </mxCell>
        <mxCell id="IyQjWxYwGwcPTdUjTPlc-148" value="a" style="rounded=0;whiteSpace=wrap;html=1;strokeWidth=3;fontFamily=Helvetica;fontSize=31;glass=0;shadow=0;fillColor=#fff2cc;strokeColor=#d6b656;" parent="1" vertex="1">
          <mxGeometry x="173.75" y="2805" width="287.5" height="120" as="geometry" />
        </mxCell>
        <mxCell id="IyQjWxYwGwcPTdUjTPlc-149" value="logo" style="rounded=0;whiteSpace=wrap;html=1;strokeWidth=3;fontFamily=Helvetica;fontSize=31;glass=0;shadow=0;fillColor=#ffe6cc;strokeColor=#d79b00;" parent="1" vertex="1">
          <mxGeometry x="120" y="120" width="275" height="60" as="geometry" />
        </mxCell>
        <mxCell id="IyQjWxYwGwcPTdUjTPlc-151" value="" style="rounded=0;whiteSpace=wrap;html=1;strokeWidth=3;fontFamily=Helvetica;fontSize=31;glass=0;shadow=0;fillColor=#f5f5f5;strokeColor=#666666;fontColor=#333333;" parent="1" vertex="1">
          <mxGeometry x="31" y="3060" width="1850" height="140" as="geometry" />
        </mxCell>
        <mxCell id="IyQjWxYwGwcPTdUjTPlc-153" value="" style="rounded=0;whiteSpace=wrap;html=1;strokeWidth=3;fontFamily=Helvetica;fontSize=31;glass=0;shadow=0;fillColor=#f5f5f5;strokeColor=#666666;fontColor=#333333;" parent="1" vertex="1">
          <mxGeometry x="31" y="3230" width="1850" height="140" as="geometry" />
        </mxCell>
        <mxCell id="IyQjWxYwGwcPTdUjTPlc-154" value="" style="rounded=0;whiteSpace=wrap;html=1;strokeWidth=3;fontFamily=Helvetica;fontSize=31;glass=0;shadow=0;" parent="1" vertex="1">
          <mxGeometry x="1368" y="3085" width="490" height="90" as="geometry" />
        </mxCell>
        <mxCell id="IyQjWxYwGwcPTdUjTPlc-155" value="a" style="rounded=0;whiteSpace=wrap;html=1;strokeWidth=3;fontFamily=Helvetica;fontSize=31;glass=0;shadow=0;fillColor=#fff2cc;strokeColor=#d6b656;" parent="1" vertex="1">
          <mxGeometry x="1386.75" y="3105" width="61.25" height="50" as="geometry" />
        </mxCell>
        <mxCell id="IyQjWxYwGwcPTdUjTPlc-156" value="a" style="rounded=0;whiteSpace=wrap;html=1;strokeWidth=3;fontFamily=Helvetica;fontSize=31;glass=0;shadow=0;fillColor=#fff2cc;strokeColor=#d6b656;" parent="1" vertex="1">
          <mxGeometry x="1463" y="3105" width="61.25" height="50" as="geometry" />
        </mxCell>
        <mxCell id="IyQjWxYwGwcPTdUjTPlc-157" value="a" style="rounded=0;whiteSpace=wrap;html=1;strokeWidth=3;fontFamily=Helvetica;fontSize=31;glass=0;shadow=0;fillColor=#fff2cc;strokeColor=#d6b656;" parent="1" vertex="1">
          <mxGeometry x="1539.25" y="3105" width="61.25" height="50" as="geometry" />
        </mxCell>
        <mxCell id="IyQjWxYwGwcPTdUjTPlc-158" value="a" style="rounded=0;whiteSpace=wrap;html=1;strokeWidth=3;fontFamily=Helvetica;fontSize=31;glass=0;shadow=0;fillColor=#fff2cc;strokeColor=#d6b656;" parent="1" vertex="1">
          <mxGeometry x="1615.5" y="3105" width="61.25" height="50" as="geometry" />
        </mxCell>
        <mxCell id="IyQjWxYwGwcPTdUjTPlc-159" value="a" style="rounded=0;whiteSpace=wrap;html=1;strokeWidth=3;fontFamily=Helvetica;fontSize=31;glass=0;shadow=0;fillColor=#fff2cc;strokeColor=#d6b656;" parent="1" vertex="1">
          <mxGeometry x="1698" y="3105" width="61.25" height="50" as="geometry" />
        </mxCell>
        <mxCell id="IyQjWxYwGwcPTdUjTPlc-160" value="a" style="rounded=0;whiteSpace=wrap;html=1;strokeWidth=3;fontFamily=Helvetica;fontSize=31;glass=0;shadow=0;fillColor=#fff2cc;strokeColor=#d6b656;" parent="1" vertex="1">
          <mxGeometry x="1774.25" y="3105" width="61.25" height="50" as="geometry" />
        </mxCell>
        <mxCell id="IyQjWxYwGwcPTdUjTPlc-175" value="" style="rounded=0;whiteSpace=wrap;html=1;strokeWidth=3;fontFamily=Helvetica;fontSize=31;glass=0;shadow=0;" parent="1" vertex="1">
          <mxGeometry x="62.5" y="3085" width="1257.5" height="90" as="geometry" />
        </mxCell>
        <mxCell id="IyQjWxYwGwcPTdUjTPlc-181" value="a" style="rounded=0;whiteSpace=wrap;html=1;strokeWidth=3;fontFamily=Helvetica;fontSize=31;glass=0;shadow=0;fillColor=#fff2cc;strokeColor=#d6b656;" parent="1" vertex="1">
          <mxGeometry x="842.5" y="3105" width="105" height="50" as="geometry" />
        </mxCell>
        <mxCell id="IyQjWxYwGwcPTdUjTPlc-182" value="a" style="rounded=0;whiteSpace=wrap;html=1;strokeWidth=3;fontFamily=Helvetica;fontSize=31;glass=0;shadow=0;fillColor=#fff2cc;strokeColor=#d6b656;" parent="1" vertex="1">
          <mxGeometry x="692.5" y="3105" width="105" height="50" as="geometry" />
        </mxCell>
        <mxCell id="IyQjWxYwGwcPTdUjTPlc-183" value="a" style="rounded=0;whiteSpace=wrap;html=1;strokeWidth=3;fontFamily=Helvetica;fontSize=31;glass=0;shadow=0;fillColor=#fff2cc;strokeColor=#d6b656;" parent="1" vertex="1">
          <mxGeometry x="540.5" y="3105" width="105" height="50" as="geometry" />
        </mxCell>
        <mxCell id="IyQjWxYwGwcPTdUjTPlc-184" value="a" style="rounded=0;whiteSpace=wrap;html=1;strokeWidth=3;fontFamily=Helvetica;fontSize=31;glass=0;shadow=0;fillColor=#fff2cc;strokeColor=#d6b656;" parent="1" vertex="1">
          <mxGeometry x="397.5" y="3105" width="105" height="50" as="geometry" />
        </mxCell>
        <mxCell id="IyQjWxYwGwcPTdUjTPlc-185" value="logo" style="rounded=0;whiteSpace=wrap;html=1;strokeWidth=3;fontFamily=Helvetica;fontSize=31;glass=0;shadow=0;fillColor=#ffe6cc;strokeColor=#d79b00;" parent="1" vertex="1">
          <mxGeometry x="77.5" y="3100" width="302.5" height="60" as="geometry" />
        </mxCell>
        <mxCell id="IyQjWxYwGwcPTdUjTPlc-186" value="p" style="rounded=0;whiteSpace=wrap;html=1;strokeWidth=3;fontFamily=Helvetica;fontSize=31;glass=0;shadow=0;" parent="1" vertex="1">
          <mxGeometry x="47.5" y="3250" width="845" height="100" as="geometry" />
        </mxCell>
        <mxCell id="IyQjWxYwGwcPTdUjTPlc-26" value="btn" style="rounded=0;whiteSpace=wrap;html=1;strokeWidth=3;fontFamily=Helvetica;fontSize=31;glass=0;shadow=1;fillColor=#d5e8d4;strokeColor=#82b366;" parent="1" vertex="1">
          <mxGeometry x="1790" y="365" width="70" height="100" as="geometry" />
        </mxCell>
        <mxCell id="IyQjWxYwGwcPTdUjTPlc-189" value="div" style="rounded=0;whiteSpace=wrap;html=1;strokeWidth=3;fontFamily=Helvetica;fontSize=31;glass=0;shadow=0;fillColor=#ffe6cc;strokeColor=#d79b00;" parent="1" vertex="1">
          <mxGeometry x="-160" y="241.25" width="260" height="347.5" as="geometry" />
        </mxCell>
        <mxCell id="IyQjWxYwGwcPTdUjTPlc-190" value="btn" style="rounded=0;whiteSpace=wrap;html=1;strokeWidth=3;fontFamily=Helvetica;fontSize=31;glass=0;shadow=1;fillColor=#d5e8d4;strokeColor=#82b366;" parent="1" vertex="1">
          <mxGeometry x="62.5" y="365" width="70" height="100" as="geometry" />
        </mxCell>
        <mxCell id="IyQjWxYwGwcPTdUjTPlc-195" value="btn" style="rounded=0;whiteSpace=wrap;html=1;strokeWidth=3;fontFamily=Helvetica;fontSize=31;glass=0;shadow=0;fillColor=#d5e8d4;strokeColor=#82b366;" parent="1" vertex="1">
          <mxGeometry x="1545.5" y="125" width="70" height="45" as="geometry" />
        </mxCell>
        <mxCell id="IyQjWxYwGwcPTdUjTPlc-196" value="btn" style="rounded=0;whiteSpace=wrap;html=1;strokeWidth=3;fontFamily=Helvetica;fontSize=31;glass=0;shadow=0;fillColor=#d5e8d4;strokeColor=#82b366;" parent="1" vertex="1">
          <mxGeometry x="1628" y="127.5" width="70" height="45" as="geometry" />
        </mxCell>
        <mxCell id="IyQjWxYwGwcPTdUjTPlc-197" value="btn" style="rounded=0;whiteSpace=wrap;html=1;strokeWidth=3;fontFamily=Helvetica;fontSize=31;glass=0;shadow=0;fillColor=#d5e8d4;strokeColor=#82b366;" parent="1" vertex="1">
          <mxGeometry x="1710" y="127.5" width="70" height="45" as="geometry" />
        </mxCell>
        <mxCell id="IyQjWxYwGwcPTdUjTPlc-198" value="a" style="rounded=0;whiteSpace=wrap;html=1;strokeWidth=3;fontFamily=Helvetica;fontSize=31;glass=0;shadow=0;fillColor=#fff2cc;strokeColor=#d6b656;" parent="1" vertex="1">
          <mxGeometry x="1790" y="125" width="100" height="50" as="geometry" />
        </mxCell>
        <mxCell id="IyQjWxYwGwcPTdUjTPlc-199" value="btn" style="rounded=0;whiteSpace=wrap;html=1;strokeWidth=3;fontFamily=Helvetica;fontSize=31;glass=0;shadow=0;fillColor=#d5e8d4;strokeColor=#82b366;" parent="1" vertex="1">
          <mxGeometry x="21" y="120" width="70" height="60" as="geometry" />
        </mxCell>
        <mxCell id="IyQjWxYwGwcPTdUjTPlc-214" value="" style="rounded=0;whiteSpace=wrap;html=1;strokeWidth=3;fontFamily=Helvetica;fontSize=31;glass=0;shadow=0;fillColor=#dae8fc;strokeColor=#6c8ebf;" parent="1" vertex="1">
          <mxGeometry x="20" y="870" width="1890" height="680" as="geometry" />
        </mxCell>
        <mxCell id="IyQjWxYwGwcPTdUjTPlc-215" value="a" style="rounded=0;whiteSpace=wrap;html=1;strokeWidth=3;fontFamily=Helvetica;fontSize=31;glass=0;shadow=0;fillColor=#fff2cc;strokeColor=#d6b656;" parent="1" vertex="1">
          <mxGeometry x="30" y="880" width="460" height="320" as="geometry" />
        </mxCell>
        <mxCell id="IyQjWxYwGwcPTdUjTPlc-216" value="a" style="rounded=0;whiteSpace=wrap;html=1;strokeWidth=3;fontFamily=Helvetica;fontSize=31;glass=0;shadow=0;fillColor=#fff2cc;strokeColor=#d6b656;" parent="1" vertex="1">
          <mxGeometry x="30" y="1210" width="460" height="320" as="geometry" />
        </mxCell>
        <mxCell id="IyQjWxYwGwcPTdUjTPlc-217" value="a" style="rounded=0;whiteSpace=wrap;html=1;strokeWidth=3;fontFamily=Helvetica;fontSize=31;glass=0;shadow=0;fillColor=#fff2cc;strokeColor=#d6b656;" parent="1" vertex="1">
          <mxGeometry x="500" y="880" width="460" height="320" as="geometry" />
        </mxCell>
        <mxCell id="IyQjWxYwGwcPTdUjTPlc-218" value="a" style="rounded=0;whiteSpace=wrap;html=1;strokeWidth=3;fontFamily=Helvetica;fontSize=31;glass=0;shadow=0;fillColor=#fff2cc;strokeColor=#d6b656;" parent="1" vertex="1">
          <mxGeometry x="500" y="1210" width="460" height="320" as="geometry" />
        </mxCell>
        <mxCell id="IyQjWxYwGwcPTdUjTPlc-219" value="a" style="rounded=0;whiteSpace=wrap;html=1;strokeWidth=3;fontFamily=Helvetica;fontSize=31;glass=0;shadow=0;fillColor=#fff2cc;strokeColor=#d6b656;" parent="1" vertex="1">
          <mxGeometry x="970" y="880" width="460" height="320" as="geometry" />
        </mxCell>
        <mxCell id="IyQjWxYwGwcPTdUjTPlc-220" value="a" style="rounded=0;whiteSpace=wrap;html=1;strokeWidth=3;fontFamily=Helvetica;fontSize=31;glass=0;shadow=0;fillColor=#fff2cc;strokeColor=#d6b656;" parent="1" vertex="1">
          <mxGeometry x="970" y="1210" width="460" height="320" as="geometry" />
        </mxCell>
        <mxCell id="IyQjWxYwGwcPTdUjTPlc-221" value="a" style="rounded=0;whiteSpace=wrap;html=1;strokeWidth=3;fontFamily=Helvetica;fontSize=31;glass=0;shadow=0;fillColor=#fff2cc;strokeColor=#d6b656;" parent="1" vertex="1">
          <mxGeometry x="1440" y="880" width="460" height="320" as="geometry" />
        </mxCell>
        <mxCell id="IyQjWxYwGwcPTdUjTPlc-222" value="a" style="rounded=0;whiteSpace=wrap;html=1;strokeWidth=3;fontFamily=Helvetica;fontSize=31;glass=0;shadow=0;fillColor=#fff2cc;strokeColor=#d6b656;" parent="1" vertex="1">
          <mxGeometry x="1440" y="1210" width="460" height="320" as="geometry" />
        </mxCell>
        <mxCell id="IyQjWxYwGwcPTdUjTPlc-231" value="" style="rounded=0;whiteSpace=wrap;html=1;strokeWidth=3;fontFamily=Helvetica;fontSize=31;glass=0;shadow=0;fillColor=#fff2cc;strokeColor=#d6b656;" parent="1" vertex="1">
          <mxGeometry x="975" y="2090" width="910" height="420" as="geometry" />
        </mxCell>
      </root>
    </mxGraphModel>
  </diagram>
</mxfile>
